<?xml version="1.0" encoding="UTF-8"?>
<svg id="Capa_1" data-name="Capa 1" xmlns="http://www.w3.org/2000/svg" viewBox="0 0 2501 2500">
  <defs>
    <style>
      .cls-1 {
        fill: #3eaa35;
      }
    </style>
  </defs>
  <path class="cls-1" d="M1432.07,342.43l-21.8,1.04c16.8-7.9,35.91-11.18,53.92-4.2-11.21.95-21.16,2.64-32.12,3.16Z"/>
  <g>
    <path class="cls-1" d="M1151.25,1365.95c-5.61-.57-9.27,2.55-12.94,6.93l101.85,171.28c3.06,5.14.58,10.23-3.68,12.77l-70.31,41.75c-4.27,2.54-9.3,1.79-12.32-3.29l-260.27-437.12c-3.36-5.64.93-10.2,4.8-12.49l111.52-66.17c45.33-26.9,99.6-9.86,137.07,23.79,50.38,46.5,91.82,126.02,71.14,195.71l158.88,163.85c4.17,4.3,1.63,9.39-2.52,11.85l-74.27,44.04c-3.57,2.12-8.07,1.3-11.14-2.06l-137.8-150.83ZM1138.04,1163.52c-12.28-7.44,6.13-12.93-4.04-22.27-19.2,16.82-4.12,19-11.85,21.22-11.58,3.33-8.83,4.8-11.09,22.55,22.71-17.88,8.35-24.7,26.98-21.51ZM1118.87,1240.35c-5.57-20.8-16.81-39.93-33.16-53.62-20.11-16.85-36.98-8.54-54.84,5.63l57.39,96.38c21.81-8.52,37.65-22.09,30.61-48.39Z"/>
    <g>
      <path class="cls-1" d="M1454.24,814.89c3.59-2.13,7.39-1.32,9.62,1.59l187.64,244.05-88.33-197.2c7-.98,8.3,5.32,13.91,5.52,3.64.13,7.42-3.58,10.33-6.03-10.69-1.43-16.78-2.83-25.59-.44-10.96-26.73-9.19-11.71-3.47-41.78,1.69-1.14,5.26-.21,7.54.28,5.75-16.38,15.05-16.32,17.68-29.74l-37.74-6.33c20.68,12.02,4.5,6.78,24.66,17.14-1.93,6.28-8.16,5.77-12.79,2.63-1.03-.7-1.82-2.25-2.73-2.42-.65-.12-1.51,1.59-2.11,1.92-1.79,1,1.12,2.46,1.71,4.37,1.5,4.85-3.22,5.11-7.44,3.74-7.07-2.3,1.16-11.68-3.7-16.6-1.97-2-5.11.33-8.08.66-4.95.56-16.05-19.91-7.85-24.82l77.81-46.59c4.2-2.51,8.82-1.3,10.9,4.1l186.52,482.7c1.99,5.14-1.35,8.92-4.59,10.83l-50.64,29.81c-5.69-2.25-7.52-8.41-14.24-9.98,1.7,5.37,7.49,5.92,10.53,12.22l-24.75,14.96c-4.41,2.66-8.89.97-12-2.69l-67.87-79.95c-1.75-2.06-3.55-3.56-3.34-5.77s1.54-3.59,4.24-6.16c-5.18-1.97-6.67-7.1-9.77-11.61l-35.78-51.82,19.89,43.72c-18.99-16.56-31.38-36.57-48.23-53.82-2.48-2.53-1.22-5.21.3-7.61-12.06-15.65-23.2-34.35-38.61-47.41l-27.36-23.18-127.81-149.88c-3.45-4.05-2.11-8.76,1.88-11.12l79.67-47.3ZM1522.47,956.91c-9.64-7.03-19.18-10.78-29.98-9.66,10.4,5.37,20.01,9.21,29.98,9.66ZM1743.45,1090.16c-.54-2.98-8.88-3.92-10.84-1.87-1.79,1.88-.29,4.57-1.46,5.03-2.46.97-3.75.61-4.68-.26-5.69-5.37.94-11.52-6.57-9.17,1.15,6.72-6.37,8.56-9.9,12.5,5.09,14.28,25.73,17.18,37.47,7.34-3.84-4.16-3.12-8.6-4.02-13.59Z"/>
      <path class="cls-1" d="M487.81,1195.28c9.54-127.22,50.43-248.52,119.96-355.64,5.37,7.58,15.07,9.79,22.94,4.87-5.49-6.7-11.55-7.72-19.56-9.9,44.67-67.31,99.21-126.73,163.42-176.37,5.47-4.23,14.15,2.78,18.55,3.57l1.37-7.96c4.41,1.14,7.47,5.83,12.07,2.74-4.16-6.12-9.75-6.64-14.91-11.17,21.23-17.85,20.87-11.4,23.17-12.41,2.05-.9,2.6-3.48,3.7-6.67,252.54-169.8,584.11-168.99,837.78.96-10.28,8.24-19.21,13.49-30.29,18.14-340.25-216.33-785.64-116.57-999.36,223.85-6.21-.09-14.36-2.95-17.63.99.33,5.77,7.9,4.59,14.22,4.22-26.65,44.69-48.49,90.11-65.45,138.98-1.22,3.5-5.33,1.46-7.91,2.12,4.31,3.91,5.1,6.49,3.5,11.34-19.41,58.83-30.61,118.56-34.77,182.07-10.93-3.37-18.94-7.43-30.79-13.73ZM1010.66,562.54c-6.26-5.78-8.54-8.06-13.23-13.89-4.63,8.61,10.37,16.66,13.23,13.89Z"/>
      <g>
        <path class="cls-1" d="M2168.02,875.9c9.37-3.2,19.04-8.71,24.28-17.13,6.99-11.22,4.4-25.72-.22-38.23-3.48-9.44-10.49-16.79-7.66-28.85l-8.47.23c-5.08-9.82-11.99-17.98-15.58-28.24,10.81,2.61,11.04,13.43,16.92,19.08,5.04,4.84,14.35,4.61,19.61,11.09l-6.61,8.43c21.63-.78,40.8,19.99,58,27.31l-15.96-14.06,12.91-7.03c-2.05-2.76-4.7-3.45-6.54-3.86-7.73-1.73-6.99,6.82-13.82,5.6-4.8-.86-2.8-10.82-6.96-17.36,5.01-4.12,13.91-4.06,19.35-7.31,2.63-18.26,18.54-12.56,19.5-21.91-6.44-2.01-12.36,2.75-18.88,1.09-4.93-1.26-5.62-8.66-10.12-10.2-16.96-5.77-42.24,13.41-66.86-3.95-3.48-2.45-11.41-5.86-13.91-9.2-10.84-14.51-18.87-30.35-27.4-45.19,5.77-2.05,8.67,1.67,10,.16,2.06-2.34,2.58-7,.64-8.72-7.02,1.53-16.11-.5-20.58-7.67-10.66-17.09-20.72-33.75-30.69-51.92,6.67-2.42,6.24,4.47,10.47,5.66,6.37-3.29,11.99-5.22,19.36-5.19-.83-4.82-3.69-6-5.73-11.34,3.57-1.65,6.18-.97,12.45.13-1.86-2.8-5.21-4.89-7.74-6.06-4.52-2.09-9.88,1.92-13.64,2.6-5.21.94-5.47-6.79-8.48-8.25-3.16-1.53-8.7-1.52-10.16.33-5.42,6.86,7.6,11.36,3.32,14.2-6.51,4.32-11.76-14.74-29.04-21.92.61-3.03,1.91-4.26,3.33-6.49l-6.53-8.13c-4.36,19.04-15.09,5.78-36.93,25.9l37.01,63.27c-16.16-1.5-29.97,1.11-44.74,2.63-24.46,2.53-47.78-2.11-72.63-4.29l-57.03-95.77c-2.66-4.46-.16-9.38,3.9-11.8l102.65-61.02c7.08-4.21,14.07-6.23,21.58-9,56.95-20.99,115.99,9.89,148.04,57.72-4.38.99-9.94-.29-11.21,2.81,2.27,6.49,2.01,12.16-3.63,18.37,3.61,1.58,8.12,1.39,8.6,4.54.43,2.82-1.99,7.23-5.23,8.47-4.13,1.58-7.65-2.29-12.94-2.72.73,6.25-3.27,8.61-7.02,12.2-2.64,2.53-2.24,9.17-.15,11.11,2.99,2.78,7.35,4.73,14.33,5.56,1.29-1.89-2.44-2.83-2.77-4.91,10.49-5.72,20.66-9.73,29.84-16.6,2.06-1.54-.73-5.59-.43-9.8,3.46.37,6.78,2.04,10.98,2.98l23.67,41.21-7.72,5.14,9.81,4.11c2.52,1.06,2.07,7.79,2.37,11.38-9.82-3.11-12.78-10.38-21.33-14.86-5.82,3.54,11.63,18.99,14.97,19.74,5.46,1.23,10.2,2.15,15.02-4.34l68.49,114.55c7.09,11.85,13.55,23.11,18.19,36.15.65,1.81-1.37,4.67-1.45,6.28-.09,1.84,4.38,1.95,5,3.9,5.88,18.51,11.07,38.04,5.39,57.97-12.91-14.32-37.62-36.17-48.62-27.36,8.1,3.17,9.99,8.88,15.94,11.82,11.72,5.78,23.17,11.05,33.88,19.32-1.47,16.82-6.75,32.71-15.62,46.71-11.14-.25-19.25-4.13-28.59-7.85,1.41,11.88,11.18,14.66,23.47,15.14-9.36,13.46-20.96,24.41-35.08,32.76l-104.7,61.91c-6.69,3.96-17.57-16.55-15.89-18.33,1.88-1.98,5.18-.39,7.7-.96-.84-6.02-11.55-3.34-14.11-7.35l-183.37-307.41,33.84-1.03c41.1-1.25,35.59,6.75,59.6.83,1.07,3.44-3.33,8.58-.43,7.15,4.19-2.08,9.26-.77,14.1-3.77,2.94-1.82,1.14-5.79,4.9-9.9,2.82,2.76,22.07,32.15,6.44,19.04-4.27,1.18-6.41,7.78-7.48,12.92,6.68-.34,12.16-3.26,15.96-8.23l104.91,175.95ZM2031.62,513.06c-5.15-3.83-6.2-4.63-8.41-5.82s-4.2-.4-5.52,1.3c-.58.75-.96,2.86.06,3.62l13.88.9ZM2245.62,886.54c3.41.05,7.73-.99,7.14-5.22-14.52-.82-28.41.45-42.78,1.91l-52,5.27c10.81,12.28,63.86-2.35,87.64-1.97Z"/>
        <g>
          <path class="cls-1" d="M1948.94,878.48c2.44,5.04.83,9.13-3,11.73l-58.15,35.33,52.4,87.61,106.32-63.02c4.44-2.63,9.24.45,11.53,4.19l45.44,76.57c3.15,5.31-.1,9.74-4.76,12.51l-182.9,108.81c-4.11,2.44-9.26,1.17-11.79-3.08l-260.25-437.04c-2.77-4.64-.74-9.78,2.73-11.82l41.83-24.64c14.21,11.39,12.96,6.86,35.39,8.04l3.99-6c2.66-4.01,17.24,3.98,35.58,6.72,32.45,4.84,63.58,9.84,97.2,10.6-8.16,15.19-26.6-2.18-22.9,15.26l-56.94,35.03,51.61,86.93,59.86-34.84c3.95-2.3,8.86.57,10.83,3.93l45.98,77.18ZM1754.2,788.33l-24.2,1.83c-6.12,5.55,29.76,2.78,24.2-1.83ZM1907.7,1006.7l-32.04-13.44c.56,7.54,6.56,13.06,14.34,13.91,5.45.59,9.69.02,17.7-.46ZM1961.04,1042.81c2.88-1.88,1.5-7.2.1-9.08-1.63-2.17-5.39-2.89-7.66-4.8-8.17-6.86-17.5-12.86-27.7-6.95l30.56,14.77c-1.05,3.06-3.1,4.61-2.24,5.37s4.29,2.4,6.94.68ZM1928.56,1057.36c.65-6.16-.3-13.22-4.29-17.4-2.73-1.48-8.51,1.83-10.74,3.83,4.55,4.6,7.69,9.96,15.03,13.57Z"/>
          <path class="cls-1" d="M1888.66,669.98c7.06,11.81-14.93,18.56-24.62,24.42-3.78-3.62-9.32-1.87-13.84-2.47-37.94-5.05-74.24-14.15-111.75-21.71-11.87-2.39-22.76,1.06-35.87-2.79l126.83-76.2c3.18-1.91,6.1-2.52,9.26-1.48,5.82,1.91,7.22,11.29,11.29,15.85-6.81,3.54-11.01,9.08-10.7,15.31,5.72-3.48,5.09-9.26,11.5-14.33l37.9,63.41ZM1849.52,641.31c-6.75-7.2-7.68-12.05-13.48-16.81-4.06,5.46-7.69,10.21-10.91,17.42,9.62,2.07,17.02-.44,24.38-.61ZM1861.36,685.92l-4.45-7.45c-1.78-2.97-3-6.07-5.95-6.3s-6.64-.99-8.09,1.95c1.91.91,4.16,2.25,4.46,3.44.26,1.04-2.62,3.34-1.66,3.96,4.86,3.14,10.7,3.36,15.69,4.4Z"/>
        </g>
      </g>
      <path class="cls-1" d="M909.46,769.91c-2.55-2.01-11.11,4.39-10.47,7.73l35.81,53.81c-6.11,6.53-12.67,11.24-21.59,14.32l-87.4-128.47c13.2-11.06,27.01-19.89,41.29-28.56,16.84-10.21,36.87-2.84,49.17,10.86,13.26,14.78,19.42,33.55,10.83,52.21l58.3,45.75c-7.19,6.59-13.97,10.76-21.73,15.02l-54.2-42.67ZM902.17,747.16c7.78-6.53,3.12-18.24-2.23-26.05-3.86-5.63-10.61-12.43-19.81-11.68-7.82.64-14.53,6.68-19.79,11.76l26.5,38.83,15.33-12.87Z"/>
      <path class="cls-1" d="M1406.59,720.99c-5.39,21.69-25.64,33.33-46.24,29.26-14.54-2.87-27.57-6.11-43.85-10.44l35.79-152.39c15.99,2.14,30.23,6.2,45.47,10.38,19.1,5.24,31.17,24.39,27.27,44.38-5.19,26.58-11.72,51.76-18.44,78.8ZM1382.35,710.03l16.53-70.17c1.7-7.21-.77-15.67-6.82-19.41-5.75-3.55-12.14-4.3-19.12-5.08l-25.73,107.99c7.7,2.83,14.86,5.34,22.12,3.22,6.82-1.99,11.23-8.98,13.01-16.55Z"/>
      <path class="cls-1" d="M1044.95,774.6c-22.24,9.98-47.15,2.86-56.4-19.83l-30.63-75.11c-9.35-22.92,2.44-45.11,24.3-54,22.88-9.3,46.67-.63,56.16,22.81l29.27,72.33c8.85,21.87-.79,43.97-22.69,53.8ZM1043.83,732.32l-31.39-77.03c-3.68-9.04-14.38-11.55-21.39-8.58-7.73,3.27-13,11.96-9.48,20.69l30.8,76.54c3.75,9.31,12.72,13.61,21.64,10.44,7.65-2.72,13.93-11.96,9.82-22.06Z"/>
      <path class="cls-1" d="M854.9,903.1c-4.75,7.86-10.04,12.82-17.85,18.79l-112.85-107.85c9.19-12.53,19.94-21.33,29.69-32.21,9.53-10.64,23.37-15.63,37.94-11.89,16.74,4.3,30.89,17.04,37.74,32.77,11.17,25.66-7.25,39.04-21.04,55.18l46.38,45.22ZM792.98,842.99c5.56-6.29,12.79-9.86,14.15-17.77,2.83-16.53-15.58-33.94-31.89-29.71-7.85,2.04-12.18,10.01-16.33,14.96l34.08,32.51Z"/>
      <path class="cls-1" d="M1070.91,598.91c9.34-5.08,17.98-5.75,27.53-5.47l38.57,104.89-.17-112.38c9.06-2.99,16.67-4.88,26.5-4.35l-4.88,158.89c-8.87,3.45-17.24,3.93-27.33,5.56l-60.23-147.14Z"/>
      <path class="cls-1" d="M778.24,1011.61l-56.02-34.57c1.8-5.59,5.61-6.12,6.37-11.36-7.11-1.03-10.27,4.34-16.51,5.21l-67.23-42.36c16.94-24.98,27.18-60.34,60.35-56.26,17.38,2.14,32.97,11.88,42.14,26.63,14.37,23.11-2.34,38.71-10.59,56.08l54.55,34.64c-3.03,8.38-6.84,13.15-13.06,21.99ZM712.56,942.24c.98-.53,4.6,1.32,5.54.33,4.47-4.68,11.21-12.58,10.39-20.87-1.58-15.94-22.05-27.64-36.58-21.53-7.54,3.17-10.62,12.38-13.42,18.55l32.96,21.15-9.24,14.71c6.24,4.05,4.34-9.11,10.35-12.33Z"/>
      <path class="cls-1" d="M733.44,1033.6c-3.12,6.81,4.15,11.48,8.97,16.74-1.78,3.41-5.93,2.83-10.58,2.31-3.97,10.5-8.66,21.12-11.02,32.12,5.89,5.87,16.03,7.47,20.76,13.81,2.48,3.32-1.09,15.16-5.25,15.5-24.05,1.92-49.6-21.63-46.03-22.25l-4.31.75-56.45-34.79c2.05-3.49,5.22-2.09,8.8-5.03l-18.92-7.55c-5.25-2.1-17.66.48-19.19-7.85-1.09-5.95,3.34-18.53,8.36-23.05,5.27-4.75,18.36-1.92,23.1,1.53,2.26,1.64,19.99,19.07,10.83,23.18l58.92,34.44c4.05-8.36,7.17-16.2,8.58-24.8l-49.89-8.71c.19-4.02,1.89-7.58,0-10.92-2.78,1.85-5.05,3.7-7.2,3.48-3.22-.32-15.67-15.53-12.26-17.3l125.9,16.22c-.88,9.17-4.11,17.62-9.25,25.72l-23.89-23.55Z"/>
      <path class="cls-1" d="M1273.46,668.58l-31.26-.22-1.06,43.88,49.99,2.09c3.15,6.87,2.34,14.05.4,22.24l-77.29-1.99,4.15-157.11,76.46,1.69c3.07,6.84,2.54,14.96-.02,22.22l-51-.55-.77,43.88,30.73,1.51c2.09,7.15,1.85,14.46-.32,22.37Z"/>
      <g>
        <path class="cls-1" d="M1206.11,807.76c23.23-4.52,22.08,26.89,35.91,25.29,11.52-1.33,19.45,6.19,24.36,16.52,6.59-3.98,13.39-9.58,19.4-.32l-519.61,309.34c37.5-194.73,190.98-343.81,381.64-379.39,6.37,3.73,13.15,11.31,21.46,10.58,7.06,6.87,16.55,7.59,24.17,12.46,4.37,2.79,6.16,6.78,12.66,5.52ZM1176.82,868.53c7.63-1.12,14.67,3.99,21.82,4.29-.69-8.51-10.49-15.9-7.18-22.56l9.82-19.74c-35.17,1.32-16.31,3-38.24-15.19-10.22,30.72,1.53,16.18-26.65,31.01,24.73,19.89,16.18,1.34,21.73,35.57,7.15-2.5,10.79-12.22,18.7-13.38ZM1051.19,937.32l36.59-4.83c-5.02-11.66-19.79-18.81-22.07-30.31-2.14-12.19,7.77-24.72,7-37-12.53,1.48-24.24,12.61-36.19,12.29l-32.94-18.44c-3.1,12.23,5.23,27.23-.06,38.15-5.3,10.96-20.96,15.16-26.85,25.66l35.62,11.14,16.74,34c9.41-8.47,11.77-24.98,22.16-30.67ZM908.06,1020.84l14.23,15.49,7.27-20.87,20.24-10.32c-25.47-19.02-15.9-4.55-20.28-37.12-6,4.25-11.96,15.79-19.39,14.4l-21.2-3.95c-.08,7.54,7.06,14.12,6.51,21.2-.61,7.83-10.62,12.37-10.28,20.68,6.88.68,17.78-5.08,22.9.5Z"/>
        <path class="cls-1" d="M1259.4,817.6c-12.71-.12-25.57-4.79-31.35-14.65,3.33-3.23,5.39-6.34,3.81-9.98-1.76-4.04-4.94-2.94-9.41-3.63-3.83-.6-3.63-6.98-6.53-8.85-7.13.35-15.79.06-18.11-8.13,62.16-4.91,121.77,1.7,181.79,20.34l-87.68,52.98c-12.17-8.44-22.2-17.08-32.51-28.07Z"/>
      </g>
      <g>
        <path class="cls-1" d="M713.33,516.56c11.22,1.56,18.21,4.73,18.83,18.21,7.02-1.55.67-4.02-.38-6.31,6.24-4.23,11.75.79,17.47,1.21s10.55-.64,15.48,6.6c3.77-10.04-5.48-18.18-14.28-19.76-6.9-1.24-10.09-4.12-13.83-9.46-4.86-6.95-20.01-.26-24.26-6.43-2.36-3.42,17.07-55.91,63.7-67.16,23.47-5.66,27.17-5.47,49.39-2.92,4.16.48,5.88,6.7,9.84,7.84,4.22-1.69,8.64-6.32,13.88-5.76,2.83.3,4.39,3.85,7.72,5.31,18.93-15.85,27.21,9.14,43.04,19.51,3.14-7.53-.59-13.18-6.65-20.95,34.11-.99,48.73,8.31,79.43-18.12,4.71-4.05,11.77,3.04,15.45,4.65,8.66,3.79,15.51,6.5,18.52,15.08,6.05-6.62,13.84-7.3,19.28-12.41,20.53-19.28,58.39-23.86,81.44-43.72-9.08-.48-15.19,6-23.13,8.88-7.1,2.58-14.26,3.33-21.09,5.27-.76-2.51-.09-4.49-1.19-4.71-1.51-.31-4.69,1.73-6.25,1.1-4.33-1.75-2.3-7.63-4.17-12.19-7.75,2.58-19.34,2.59-24.58-2.99.05-2.28,1.82-6.49-.71-9.73,9.08-8.4,18.6-20.98,29.95-27.58,7.88-4.58,38.26,10.02,41.66,18.85,18.89-7.06,17.84,16.33,48.72,3.54,9.64-3.99,11.91-14.04,12.68-22.26l-13.27,14.76c-12.12-.57-22.05-6.42-31.92-12.57-12.95-8.07-27.32-7.64-43.35-12.74,29.73-16.5,63.78-13.1,93.14,2.07l57.27,29.57-19.51,5.86c21.04,5.27,23.57-6.79,45.72,6.82,18.66,11.46,38.53,14.61,59.23,8.01,27.06-8.63,51.95-23.08,79.98-29.2,31.87-6.96,64.35-4.7,96.74-8.41,11.22,2.25,23.29,13.24,30.67,21.76l76.05,87.81c11.64,13.44,27.99,20.48,45.87,20.94l106.11,2.75c34.85.01,66.31,17.53,84.05,49.55l-136.34,81.7c-283.34-198.74-659.03-190.82-932.91,20-5.82,1.65-9.28,6.02-14.59,6.5-2.51.23-4.2-5.04-6.31-3.55-2.57,1.82-6.28,2.26-6.74,5.66,2.43,2.89,6.05,3.35,9.08,6.08-206.36,168.98-312.66,433.2-281.56,699.38l-135.78,81.08c-19.73-26.67-21-62.04-7.36-91.88l51.63-102.21c17.85-35.34-4.93-61.79-14.54-96.69,8.27-1.79,35.65,20.44,31.44,9.81-.06-.16-33.86-13.82-34.31-18.46-8.77-16.16-13.87-33.46-20.26-50.55-13.85-37.05-2.44-77.69,27.33-103.19l80.73-69.13c16.27-13.93,25.26-31.86,25.77-53.69l2.47-104c.93-39.12,23.33-75.28,60.97-87.7l106.73-35.21c19.16-6.32,33.66-18.78,41.87-37.21l20.39-45.77c2.74-6.15,11.61.24,14.79-2.9,2.01-1.99,1.03-4.49-1.52-6.11-1.99-1.27-6.45-2.14-6.69-4.03-.41-3.34,1.74-5.47,2.52-7.3,1.35-3.22,6.8-1.67,10.42-1.16ZM1068.61,347.71c-5.82-.46-8.5-.63-12.53.14,3.98,4.02,6.61,6.49,9.09,10.39,2.28-4.03,2.92-6.79,3.44-10.53ZM1051.9,360.4c3.98,4.45,8.62,9.42,15.2,7.35,6.72-2.11-8.27-10.57-15.2-7.35ZM866.1,463.39c3.98,2.35,10.08,2.87,13.84-.04-1.03-10.36-9.91-22.09-22.26-18.12-.82,2.48,2.99,4.16,4.43,5.54,3.03,2.89,4.59,1.26,8.59-.68,2.16-.97,3.3,5.42,1.22,7.96-1.13,1.37-2.84,2.41-5.82,5.35ZM895.32,472.89c-5.41-1.47-9.33-9.44-19.35.08,5.43,3.95,10.13.23,19.35-.08ZM919.52,487.96c-4.43-3.55-8.24-4.18-12.78-5.28l.95,10.03c4.48-.25,8.44-1.16,11.83-4.75ZM804.69,543.32c-10.4-3.88-18.57-9.47-29.88-10.69,1.44,1.96,31.25,22.05,29.88,10.69ZM596.75,728.19c6.6-9.19,7.12-19.13,7.27-29.01,1.26-4.89,2.79-9.38,2.11-13.75-7.81,3.66-4.75,11.68-4.78,18.36-.03,8.26-8.1,14.82-4.6,24.4ZM449.72,1158.27c-3.13-6.14-7.38-7.31-10.68-12.34-1.76,2.53-3.11,4.36-5.34,8.46,5.63,1.79,9.98,4.97,16.02,3.88Z"/>
        <path class="cls-1" d="M519.6,1303.95c-8.87,8.63-19.18,12.76-30.24,18.95-4.69-41.54-4.64-81.38-1.85-124.43,13,1.89,22.22,10.94,30.9,19.37-1.77,28.96-1.37,55.52,1.19,86.1Z"/>
        <path class="cls-1" d="M1038.6,408.52c-5.27,9.93-17.65,13.49-28.41,9.72l-25.68-9c4.18-10.85,10.81-11.59,19.34-10.6,7.43.86,14.33-5.41,22.33-2.61l-2.83,8.12c4.98,1.52,7.99.31,15.26,4.37Z"/>
      </g>
      <path class="cls-1" d="M1517.38,1396.74c-39.06,23.39-83.17,25.13-122.41,2.32-24.79-14.4-45.65-34.4-60.85-59.86l-126.86-212.54c-38.69-64.83-38.04-149.4,33.84-192.08,35.53-21.1,76.44-24.82,114.59-6.28,27.91,13.57,51.91,34.57,68.41,62.21l129.09,216.34c37.57,62.96,35.42,147.24-35.81,189.9ZM1444.7,1307.53c15.31,4.23,29.04-8.19,29.37-22.57.23-9.94-2.3-19.22-7.65-28.19l-126.65-212.5c-5.84-9.8-14.36-17.01-24.55-20.51-8.57-2.95-17.08.59-22.95,5.6-12.82,10.94-7.11,32.28,1.09,46.03l126.73,212.42c5.5,9.23,13.92,16.78,24.6,19.73ZM1470.47,1250.77c.51-6.68-1.32-12.79-7.68-17.13-2.03,6.78.71,15.45,7.68,17.13ZM1489.58,1342.81l-11.11-11.27c-2.17,1.45-3.92,3.29-6.01,6.92,4.87,2.16,8.16,3.33,17.12,4.35ZM1472.26,1352.9c-8.29-3.9-15.79-5.35-21.9-10.98-.56,6.79,3.47,10.5,8.42,11.83,4.4,1.18,9.79,2.25,13.48-.85Z"/>
    </g>
    <g>
      <g>
        <g>
          <path class="cls-1" d="M918.73,1746.15c-4.57,2.78-9.81-.39-11.62-3.45l-43.24-72.9c1.71-2.08,4.58-1.33,5.54-3.38-3.01-2.89-8.44-1.4-10.91-5.54l-211.9-355.78c-3.95-6.64,2.77-10.33,6.26-13.35,5.87-5.07,9.32.91,15.27,3.59,24.55,11.06,47.4,22.95,71.74,34.59l51.7,24.72,47.29,77.03c-10.43-.11-17.28-3.17-23.11,3.96,6.67-1.56,10.99,2.3,16.94,3.1,18.58,2.5,25.03-4.58,39.7-16.73l9.6,6.93c1.9-15.25,18.83-10.94,19.81-14.24l2.44-8.25c1.99-6.73,16.22-4.01,22.96-10.11-17.61-10.97-31.3,7.48-50.96,9.98,1.3-25.96-20.9-61.53-40.91-75.17-25.62-17.47-50.15,7.5-49.9,7.05-2.01,3.66,3.28,4.04,2.21,12.83l-124.11-64.84,98.11-58.84c27.15-16.28,58.25-18.01,88.09-7.58,73.5,24.94,142.64,137.09,127.81,213.01-6.54-3.43-10.21-4.19-15.46-4.68-4.18-.39-3.45-6.65-5.83-8.2-6.31-4.1-15.03-3.49-21.53.71,3.48,5.37,10.41,5.43,16.67,1.28,1.65,4.11-.67,8.12-.14,13.2,8.63,9.93,24.38,12.79,20.88,18.01-2.93,4.37-20.44-7.63-23.57-13.14,4.31,25.99,22.46,10.14,19.4,19.99-5.23,16.83-19.46,30.84-34.25,39.97l-39.51,24.38,100.47,169.85c-10.78.78-12.69-7.9-20.46-6.5-3.99.72-8.38-.19-11.11-1.11-5.49-1.85-3.17-8.46-6.32-12.27-2.28-2.76-8.67,3.14-7.08,8.3l-53.82-12.51c-4.04-7.84-2.74-16.51-7.54-23.57-10.18,3.47-13.01,14.19-12.82,23.29l118.16,30.82-74.95,45.55ZM905.7,1364.92c-2.25-2.07-4.32-4.11-7.91-6.33-4.68,1.72-8.01,4.33-12.17,6.75,7.02,2.16,11.01-.52,20.08-.42ZM740.89,1375.97l-14.84,24.68c1.68,5.48,24.02-16.17,14.84-24.68ZM761.78,1406.4c9.41.35,17.5-5.6,23.78-11.21-13.89-.09-24.12.45-31.93-8.41.85,5.99-6.36,7.32-7.96,10.2-.2,6.05,9.13,9.16,16.1,9.43Z"/>
          <g>
            <path class="cls-1" d="M542.41,1581.73c-1.38-.43-4.68,1.94-6.38,2-2.16.07-2.28-4.53-3.95-5.11l-10.08,8.17c-15.54-1.71-29.88-6.4-45.27-9.84l-39.18-63.56,10.58-7.78c9.48-.94,18.85.32,27.13-6.9-9.12-1.7-14.88-.13-21.75-3.3-4.46-2.06-8.09,3.74-11.95,4.85-7.61,2.18-14.44-4.22-18-10.25l-22.34-37.84c-2.53-4.29-1.38-9.52,3.18-12.21l115.6-68.34c25.88-15.3,56.83-15.28,84.83-4.97,56.96,20.97,99.49,80.48,119.1,135.92,14.07,39.78,15.58,90.69-13.82,123.99l-55.15-12.38c-.38-2.81-.02-4.51-.64-6.27-25.88,4.68-31.54-20.36-39.03-17.2-4.21,1.78-2.76,11.33-8.29,13.36-2.9,1.07-5.62-3.56-7.66-6.8-9.97,3.98-20.74,5.04-29.59-2.93-13.27-11.94-18.74-1.71-27.35-12.62ZM575.74,1459.18c5.38-.77-5.26-8.29-3.59-16.31-11.91-.31-4.93,7.86-13.88,2.08-.95-.61-3,.35-2.85,1.43.13.99-.95,3.5.21,4.81,4.6,5.14,12.79,9.03,20.1,7.99ZM629.04,1538.12c-5.72-22.18-18.03-42.69-35.29-57.36-20.1-17.1-37.81-9.22-55.71,4.94l60.55,101.26c21.9-9.61,37.25-22.46,30.45-48.84ZM522.23,1555.31c-7.76-7.51-17.73-7.61-27.48-8.18,9.53,7.76,17.09,13.24,27.48,8.18Z"/>
            <path class="cls-1" d="M746.66,1836.17c2.54,4.28,3.42,10.07-.33,12.31l-45.78,27.31c-4.54-2.4-5.83-5.91-10.1-7.05-.62,4.05,2.27,6.21,3.82,10.34-9.31,5.14-25.91,21.99-33.43,9.35l-182.18-306.61c19.78,4.38,38.99,5.5,55.54,12.12,7.58,3.03,8.31,2.1,15.39,2.92,40.57,4.69,79.33,16.24,118.72,25.9,13.01,3.19,25.26,2.79,38.51,7.44-15.59,18.29-38.82,26.01-58.46,40.61l98.28,165.34ZM668.74,1844.66l-13.01-8.4c-1.22,1.9-2.63,7.23-.34,8.05,4.02,1.44,8.96,1.46,13.35.35Z"/>
          </g>
        </g>
        <g>
          <path class="cls-1" d="M484.28,1914.74l-113.07-63.45c-23.82-13.37-46.76-23.7-74.43-30.2l-96.63-251.56c-1.51-3.92.4-8.33,3.62-10.03,13.16-6.93,24.61-16.2,38.51-21.92,37.03,5.13,24.58-2.96,56.8-5.13-2.85-9.13-9.77-15.89-22.77-14.45,4.7-5.02,10.95-10.66,19.98-8.39l337.43,394.24c2.48,2.89,3.44,4.39,3.14,7.18-.24,2.24-1.77,4.22-4.51,5.81l-77.23,44.98c-4.8,2.79-10.71-7.7-9.14-11.74-1.29-2.55-3.46-.51-5.35-.94l-35.55-46.08c-7.34,2.96-12.49,7.13-20.81,11.68ZM219.06,1581.99c18.46,5.22,35.15,5.47,52.64,9.04,1.65.34,2.56-1.42,2.78-2.1,1.45-4.3-48.43-13.37-55.43-6.95ZM295.62,1646.29c2.13-2.82-2.85-5.57-4.91-5.13-2.71.58-7.87.12-7.11,4.51s9.15,4.42,12.02.62ZM445.2,1824.83l-103.12-132.55,63.99,156.06c13.96-6.91,25.89-13.58,39.14-23.51Z"/>
          <path class="cls-1" d="M445.25,1938.17l27.24,66c1.83,4.42-.7,8.23-4.4,10.43l-72.71,43.16c-1.61.96-7.35.99-8.41-1.79l-81.95-213.87c3.84-.48,5.05-.36,6.13-.01.8.26,1.4.35,1.26-1.09-.41-4.17-13.41-3.7-11.9-13.62l41.67,17.71c45.76,19.45,29.81,36.29,64.21,38.87,6.61.5,7.24,5.83,10.9,8.87,11.74,9.73,35.03,9.14,51.75,30.57l-23.78,14.77ZM426.94,1964.07c-5.03-7.04-13.44-5.09-18.33-.89,8.57-.08,12.59,3.51,18.33.89Z"/>
        </g>
      </g>
      <g>
        <path class="cls-1" d="M1275.2,2141.8c-2.41-6.94-16.01-3.12-19.28-7.44-6.79-8.98-20.21-5.87-27.12-8.31-24.73-8.73-50.09-17.72-75.29-.67-4.56-3.28-8.89-8.18-9.02-12.67,22.36-7.39-16.67-20.76-33.5-33.46-1.48-1.12-4.3-2.49-6.5-2.17-1.26.18-2.79,1.51-2.42,3.28,41.4,18.47,27.48,17.19,37.12,32.35,1.05,1.65-3.82,5.3-2.19,7.63s4.18,3.13,7.55,6.9l-82,31.87c-31.63,12.29-67.06,6.84-93.4-14.9,2.96-7.97,17.62-16.18,25.67-13.27-3.6-4.79-11.28-8.79-15.84-7.09-6.87,2.56-8.27,11.06-15.38,15.81-12.8-13.27-18.72-22.11-30.04-35.14l-47.53-54.74c-11.75-13.53-27.35-22.84-46.03-23.38l-111.96-3.23c-3.05-.09-5.08-1.42-4.88-4.12.24-3.11,9.48-4.59,11.63-9.35,5.27-11.64-6.44-9.07-4.12-17.29-22.27-13.47,3.8-8.65-29.87-8.57-3.39,0-5.87,3.35-8.21,1.03-1.61-1.6-5.57-5.48-3.33-6.89l18.25,1.48c.69-2.32.68-8.85-1.4-8.79l-18.72.51,2.98-6.79c1.02-2.33-2.29-3.11-3.73-3.42-3.06-.67-3.42,2.68-5.14,4.48-6.21,6.47-15.54,6.24-23.89,11.51,14.56,6.31,7.81,11.66,15.3,12.16,3.4.23,9.51-16.36,10.62-6.6l2.17,19.21c-6.48.57-11.32-.52-17.41-1.66-8.39-7.77-16.33-16.08-20.33-26.65l135.97-81.17c224.04,157.89,515.21,188.05,766.07,78.57l16.05,4.46,14.35-6.38c-5.02-3.23-9.78-1.02-12.7-6.04,308.13-143.8,488.07-465.79,449.14-804.9l128.88-76.44c1.06-.63,4.02,4.09,5.08,4.63,1.34.68,3.49-.72,6.5-2.33,15.84,27.86,14.76,61.74-.06,90.84l-47.26,92.82c-8.86,17.4-10.85,36.59-3.78,55l38.84,101.13c14.78,38.47,4.57,82.79-28.9,108.35-1.77-9.07.07-22.03-8.03-19.37l-19.61,6.44c-1.92.63-4.14,2.33-4.91,3.37-4.07,5.5,11.52,16.13,20.46,19.83l-68.4,59.39c-14.84,12.89-22.37,30.32-23.22,50.45l-.93,21.98c-.12,2.74.14,4.84-1.44,6.62-1,1.13-3.04.94-6.1,2.66,6.39,3.3,7.69,7.77,7.41,14.73l-3,75.4c-.36,9.16-4.36,13.55-12.42,16.92-3.57,1.49,2.88,7.21,2.5,9.66-.41,2.65-5.55,2.69-6.91,4.12s1.52,5.4.24,7.39c-11.08,17.11-28.39,28.87-47.73,35.08l-36.16,11.62c-6.97,2.24-11.54-2.23-16.66-4.28-7.99-3.2-33.29-4.19-35.66,11.2-.7,4.51,4.36,4.69,7.13,8.4-8.56,2.39-15.31-1.49-22.26,1.97-1.26,1.32-.53,4.03-1.4,5.18-1.82,2.43-5.8-.4-7.37.38-5.85,2.92-8.64,11.01-15.91,12.55-3.76.79-3.9-4.37-8.4-6.27,2.64,11.6-1.31,17.66-5.15,26.2l-46.56,103.52c-16.73,37.21-54.67,58.74-95.55,54.68-5.74-14.51-6.14-28.44-5.15-43.89.39-6.12-11.07-12.02-16.04-10.93-3.68.81-5.92,5.66-11.34,3.28,15.74,22.86-8.78,9.89,14.08,49.33l-91.62-6.05c-19.19-1.27-35.56,6.79-49.1,19.59l-80.2,75.84c-29.88,28.25-75.47,31.35-110.38,10.29,4.36-12.99,7.18-23.51,12.16-34.6,3.2-7.12,9.03-13.87,4.64-23.18l-23.27,54.81-33-16.9c-1.36-.7-1.29-3.49-.99-4.33.41-1.15,2.33-2.08,5.3-3.23ZM1953.14,1706.32c-3.32-2.67-6.57,2.39-5.43,4.3,1.55,2.61,2.05,6.43,4.06,6.57,3.3.23,6.26.58,8.7-3.78-5.42.45-5.2-5.37-7.33-7.09ZM1979.13,1805.82c.94-31.07-6.89-11.83-37.35-37.72.91,9.52,8.84,12.71,13.16,19.31,2.92,4.46.31,10.49,4.95,14.22,1.4-3.53,1.75-7.9,4.86-7.47,8.3,1.12.25,5.78,14.38,11.67ZM1794.03,1880.09c-6.31-13.38-16.67-25.51-30.3-31.67,4.25,6.86,11.96,7.95,11.49,16.5,6,5,9.57,11.37,18.82,15.17ZM775.19,2020.48c-2.11-8.77-8.02-9.47-14.77-8.52,2.64-6.05,4.54-13.45,2.73-20.2-3.97,1.83-9.04-2.65-13-3.63-6.74-1.68-14.27,25.38-10.67,24.49,27.36.88,15,3.2,35.72,7.86ZM1378.15,2162c-8.29-.92-10.14-4.58-12.83-9.52-1.49-1.9-5.02-2.36-7.12-4.41,3.03,6.28,7.78,18.86,14.7,18.1,1.73-.19,4.46-1.65,5.25-4.17Z"/>
        <path class="cls-1" d="M1576.92,1920.27c-4.05,1.72-3.94-8.37-3.17-10.16-4.34,2.27-5.69,7.23-10.1,9.98-5.32,3.31-10.28-5.3-17.47-2.65-5.39,1.99-3.19,13.06-9.13,13.45-3.21.21-10.15-7.47-10.83-10.71-.42-1.99,2.15-3.83,3.75-5.22-2.31-1.77-4.45-1.13-6.45-4.38,93.55-41.15,177.35-100.38,246.24-176.79,7.57,2.87,12.71.32,17.4-4.9,7.92-8.81,19.02-13.6,25.15-26.02-8.38,2.16-12.39,10.36-24.84,11.06,120.39-144.36,180.47-329.45,166.68-518.15,10.38-6.93,19.37-12.45,30.35-17.94,17.22,181.37-31.53,362.03-136.52,509.77-2.23,3.14-5.95,1.6-7.98,2.56-8.29,9.02-13.95,19.6-23.13,27.44.72,1.76,4,5,2.93,6.42-11.94,15.88-25.29,30.13-38.7,44.4-6.33-4.26-4.57-9.78-4.83-15.62-.67-3.19-6.64-4.46-10.21-4.54,7.28,12.17-5.48,13.19,8.45,26.99-3.71,2.92-6.74.52-10.66-.45-2.05,2.63.37,5.02,2.7,8.7-55.32,54.57-118.39,101.08-189.63,136.75Z"/>
        <path class="cls-1" d="M1503.42,1953.02c-227.21,86.41-483.73,56.37-686.33-79.34,8.82-7.79,19.23-11.8,29.56-18.73,181.94,116.73,407.15,146.75,613.14,79.74,14.27,6.94,27.57,8.36,43.62,18.33Z"/>
        <path class="cls-1" d="M1868.49,1446.78c-3.53,15.64-7.57,28.75-12.57,44.5l-150.8-42.76c3.26-15.54,7.51-28.87,11.82-43.01,6.49-21.28,27.87-32.73,49.34-26.56l76.31,21.93c19.36,5.57,30.53,25.44,25.91,45.91ZM1845.29,1439.01c-1.25-7.81-8.57-12.72-15.11-14.58l-70.18-19.87c-6.92-1.96-15.64-.21-19.61,5.47s-5.26,12.53-6.1,19.65l107,30.21c2.11-6.68,5.27-12.96,4-20.88Z"/>
        <path class="cls-1" d="M1145.07,1880.6l-33.12-7.45-12,24.93c-8.06-1.17-15.24-2.26-24.56-5.57l64.25-145.04c10.18-1.01,18.72,1.72,29.16,4.92l1.66,159.75c-9.51-.49-17.53-2.13-25.59-5.22l.21-26.32ZM1145.76,1858.03l1.17-70.22-27.3,65.79c9.37,1.9,17,4.47,26.14,4.42Z"/>
        <path class="cls-1" d="M1666.06,1651.59c-1.24,6.64,1.51,8.43-.65,12.74l-74.29-40.61c6.06-8.18,10.58-13.98,17.73-20.84l98.06,56.77-72.19-85.94c3.64-8.37,9.72-15.18,17.52-21.08l97.41,125.41c-4.89,8.49-10.58,14.55-17.74,21.71l-65.35-34.89c3.11-5.3,7.23-2.47,11.24-5.43l-11.74-7.85Z"/>
        <path class="cls-1" d="M1752.98,1554.89l38.79,21.05,24.2-44.53c7.61,1.04,14.37,4.56,19.78,10.65l-36.02,67.61-138.92-73.49,36-68.31c7.69,1.26,14.07,5.14,19.65,10.51l-23.13,45.05,38.45,20.25,15.31-25.19c4.7-2.49,17.07,4.23,18.69,9.18-1.43,9.47-9.65,17.37-12.79,27.23Z"/>
        <path class="cls-1" d="M1279.37,1761.42c26.46,7.95,31.46,43.82,22.46,65.73-10.63,25.92-32.58,21.97-54.06,23.85l.14,64.14c-8.6,2.42-17.26,3.1-25.76.04l-2.1-154.85c14.71-1.51,30.33-3.89,44.19,1.19,3.81,1.4,2.08,8.69,7.43,6.69,3.79-1.41,7.01-1.55,7.7-6.79ZM1247.65,1828.68c6.99.61,16.6,3.21,23.44-2.26,12.32-9.83,11.85-32.66-.63-42.25-6.88-5.29-16.34-2.44-23.34-2.16-1.49,7.96,1.15,14.09-1.88,21.05-7.01-3-11.83-5.68-17.2-3.25l17.4,10.59c5.01,3.05.14,12.44,2.21,18.28Z"/>
        <g>
          <path class="cls-1" d="M1491.99,1791.01c-3.59-3.01-7.73-5.56-11.09-11.89,6.35-4.31,14.23-5.43,16.65-13.42,3.97-13.11-3.95-30.54-17.79-34.35-8.52-2.34-17.23,3.98-23.22,8.03l20.97,46.52c1.6,3.54,2.33,12.3-1.48,13.46-4.9,1.5-9.26-4.01-14.05-4.1-2.91,4.3,2.12,9.15-1.77,13.6l-37.51-78.9c14.9-7.95,28.5-14.57,43.01-20.87,19.57-8.51,39.79,1.69,50.27,19.26,9.71,16.28,12.71,34.9,1.51,51.79l50.32,54.02c-7.82,5.51-15.11,9.04-24.32,11.39l-29.64-33.6c1.4-1.96,6.48-2.69,5.17-4.97-2.86-4.97-4.92-9.39-8.32-12.55-.49,4.56-.19,7.14-1.75,8.68-4.1,4.02-7.71-7.71-12.35-8.12-4.01-.35-12.81,6.11-10.5.12.59-1.53,2.32-2.09,5.91-4.09Z"/>
          <path class="cls-1" d="M1513.1,1859.48c-6.79,6.34-14.73,9.24-23.37,11.38l-21.95-45.33c2.89-3.19,3.32-7.31,6.01-10.62,3.48-4.28,12.1,6.77,17.55-.93l21.76,45.49Z"/>
        </g>
        <g>
          <path class="cls-1" d="M1359.58,1800.8c-.86,2.7-6.43-.61-9.87.14,7.43,2.49,10.35,11.45,15.71,15.04-1.94-1.3,30.76,10.21,30.82,15.42l-26.85,7.73,4.64,25.11c-9.25-4.6-17.83-6.45-28.09-7.98l-22.91-100.52c15.08-4.79,28.78-7.04,43.07-10.57,16.08-3.97,32.01,1.97,41.41,15.75,19.44,28.49,8.18,63.09-5.32,64.85-7.42.97-13.84-6.39-21.48-10.04,10.14-7.16,13.07-16.22,10.31-27.54-2.27-9.32-7.4-19.18-17.79-20.36-6.48-.74-13.26,1.94-19.21,4.08l5.56,28.89Z"/>
          <path class="cls-1" d="M1377.05,1888.68c1.35,3.98,9.11,10.86,3.72,14.2-6.28,3.89-14.71,4.27-22.19,5.2-4.23-14.18-6.8-26.09-9.52-40.7,9.62.94,21.48,2.05,24.03,9.59l3.95,11.71Z"/>
        </g>
        <path class="cls-1" d="M1506.26,1927.6c-1.21,1.56-1.25,3.49-2.8,6.75-4.97-1.78-9.19-4.85-12.01-10.15,5.39-3.09,9.43-4.68,14.31-5.88,5.61,8.91,19.01.93,17.35,11.81-6.34.66-11.92-2.37-16.85-2.53Z"/>
        <g>
          <path class="cls-1" d="M1652.43,1776.47c-5.55,2.33-12.49-4.06-17.44-2.69-8.62,2.87-12.42,16.17-19.42,19.42-11.68,3.5-24.27-7.04-31.01-15.78l-47.88-62.15c-15.51-20.13-9.16-45.75,10.99-59.86,19.04-13.33,43-11.18,57.62,7.73,8.75,11.32,17.87,22.36,25.98,34.21-4.75,4.11-7.74,1.94-10.6,6.27,16.03,4.18,26.43,11.36,34.33,23.79,9.39,14.78,11.29,34.5-2.57,49.07ZM1606.85,1763.19c6.7,8.6,17.46,9.01,24.64,2.84,20.57-17.69-19.65-33.71,4.11-39.84-4.58-9.85-16.67-10.37-24.85-15.74-16.08-10.55-30.29-54-52.14-34.67-15.69,13.88,6.56,30.28,11.98,42.01-6.8,3.68-12.91,1.01-18.97,3.34,8.87,4.51,17.4,2.3,26.2,4.77l29.04,37.29Z"/>
          <path class="cls-1" d="M1646.22,1782.48c-4.71,5.05-10.4,8.67-19.52,10.67-.03-4.68,3.01-8.61,4.93-10.77,3.14-3.54,7.47-4.77,14.59.1Z"/>
        </g>
        <g>
          <path class="cls-1" d="M1522.15,1494.97c17.36,13.69,13.08,2.31,21.05,28.92.68,2.28-.9,7.33,2.13,6.57,4.1-1.03,6.77-6.03,10.11-6.19,15.99-.78,12.93,11.76,31.68,14.36,1.76.24,3.64,2.53,5.22,1.89,1.35-.55,3.43-2.1,3.22-3.57-1.04-7.28-11.08-2.8-11.66-17.9-.23-6.08-7.24-12.09-5.6-18.58s8.48-11.45,10.77-18.62l-22.36-.82c-5.05-.19-7.59-8.68-11.73-13.61,2.96-4.52,13.25,7.05,17.4,1.84,9.77-12.28-41.71-10.77-38.03-23.8l129.79-77.34c3.99,6.6,17.18-4.1,36.98,2.37-24.75,96.35-78.47,182.23-155.17,246.95-14.45-4.71-24.73-15.07-40.49-18.08,8.25,12.01,21.39,15.28,31.83,25.11-22.14,17.83-44.83,32.77-69.47,46.5-11.87-7.41-23.87-13.26-38.45-14.54,1.96,5.69,6.7,6.91,11.48,8.11,4.58,4.15,9.7,5.52,14.64,12.86-110.47,56.97-240.11,68.98-361.91,30.71l432.56-257.87c5.83-3.47,9.29,2.56,12.49,4.86l12.01,8.65c-3.09,6.62-1.99,16.31-7.02,21.8-5.46,5.95-15.57,5.88-21.46,9.42ZM1640.43,1478.77c-3.01-6.95-9.88-11.73-17.5-8.89,3.67,6.71,9.76,10.38,17.5,8.89ZM1616.47,1489.97c-5.94-1.24-12.08-.6-13.09,4.79-.06,2.81,5.7,2.34,8.12,1.26,1.99-.89,4.94-2.71,4.97-6.05ZM1470.05,1606.95c11.67,5.29,22.26,6.95,28.64,14.37l3.22,3.74c1.31,1.52,3.38.91,4.84-1.3l-34.09-23.76,25.37-21.15-37.01-11.97c-8.34-8.5-8.28-24.78-15.77-34.17l-22,30.5-37.31,5.66c5.4,11.66,19.06,18.37,21.9,29.56l-6.34,37.11c12.6-1.22,24.17-13.11,35.9-11.66l32.5,18.09.15-35ZM1295.83,1670.94l14.26,15.09,7-21.21c2.14-6.49,14.71-4.82,19.8-10.27l-17.96-13.26-3.37-22.21c-7.2,2.79-11.29,14.04-17.77,13.27l-22.56-2.69c11.07,30.57,9.58,13.57-3.1,40.4,7.5,3.24,17.95-5.21,23.7.88Z"/>
          <path class="cls-1" d="M1700.35,1368.32l-23.08-6.88c6.51-5.14,15.4-13.74,25.3-10.01,4.95,1.86.52,13.48-2.23,16.89Z"/>
        </g>
      </g>
    </g>
  </g>
</svg>