<?xml version="1.0" encoding="UTF-8"?>
<svg id="Capa_2" data-name="Capa 2" xmlns="http://www.w3.org/2000/svg" viewBox="0 0 115.43 292.52">
  <defs>
    <style>
      .cls-1 {
        fill: #fff;
      }

      .cls-2 {
        fill: #161619;
      }

      .cls-3 {
        fill: #cdcccc;
      }
    </style>
  </defs>
  <g id="Capa_2-2" data-name="Capa 2">
    <g>
      <g>
        <path class="cls-1" d="M111.64,249.19c-.05-4.01,2.84-6.36,1.78-14.72-1.06-8.35-3.32-12.34-3.33-14.14h0c0-1.75,1.68-3.94,1.69-6.81,0-2.42-1.43-4.33-1.67-7.06v-1.63c.35-3.67,1.26-3.89,1.74-7.62.48-3.73-1.61-9.76-1.57-14.44.15-6.31.41-12.64.78-18.88,5.85-96.75.94-129.62-30.92-156.18-19.05-2.35-40.5,14.49-52.4,30.05C4.7,67.87.31,111.79,1.75,129.25c1.22,14.74,2.73,25.61,3.55,51.51.15,4.68-1.73,12.77-1.16,16.49s1.49,3.92,1.91,7.58c.01.54.03,1.08.04,1.63-.18,2.74-1.57,4.68-1.51,7.1.07,2.87,1.8,5.02,1.84,6.76h0c.04,1.8-2.14,5.84-3.01,14.21-.87,8.38,2.36,13.14,2.4,17.15-.07,8.86-.17,18.48-.32,28.98,59.03,24.13,108.38-1.56,108.38-1.56,0,0-1.19-11.92-2.24-29.91h.01Z"/>
        <path class="cls-1" d="M83.99,133.18c6.29-24.84,20.77-102.3-19.36-102.3-34.71,0-38.68,76.85-38.93,94.83l58.3,7.47h-.01Z"/>
        <path class="cls-3" d="M83.79,128.76c2.83,8.06-7.78,14.59-23.7,14.59s-31.12-6.53-33.96-14.59c-2.83-8.06,7.78-14.59,23.7-14.59s31.12,6.53,33.96,14.59Z"/>
        <path class="cls-1" d="M23.12,44.37C42.67,31.61,51.66,7.71,80.16,7.71l-5.77-6.19c-23.17,0-30.83,21.87-46.73,33.54,0,0-4.54,9.31-4.54,9.31Z"/>
      </g>
      <g>
        <g>
          <path class="cls-2" d="M57.99,291.35c-15.31,0-33.44-2.49-52.63-10.34-.15-.06-.24-.2-.24-.36.15-10.28.25-20.03.32-28.98-.01-1.41-.45-2.96-.96-4.76-.89-3.14-1.99-7.05-1.44-12.42.55-5.29,1.62-8.87,2.33-11.24.4-1.35.69-2.32.68-2.93-.02-.7-.34-1.5-.72-2.42-.51-1.25-1.08-2.66-1.12-4.35-.03-1.33.34-2.48.73-3.7.34-1.07.7-2.17.78-3.43l-.04-1.59c-.22-1.82-.56-2.75-.92-3.75-.35-.96-.71-1.95-.99-3.79-.32-2.07.09-5.33.52-8.78.35-2.77.7-5.64.64-7.75-.63-19.71-1.65-30.72-2.64-41.35-.3-3.25-.62-6.62-.91-10.13C-.08,111.56,4.44,72.78,22.8,44.17l.67.36v.02C5.18,73.04.69,111.6,2.14,129.22c.29,3.51.6,6.87.91,10.13.99,10.65,2.02,21.66,2.65,41.4.07,2.17-.29,5.07-.64,7.87-.41,3.25-.82,6.6-.52,8.57.27,1.76.62,2.72.95,3.64.38,1.04.73,2.02.96,3.95l.04,1.66c-.09,1.39-.46,2.54-.82,3.65-.37,1.16-.72,2.25-.7,3.45.04,1.54.59,2.89,1.07,4.08.4.99.75,1.85.77,2.68.01.74-.28,1.71-.71,3.17-.7,2.34-1.76,5.88-2.3,11.1-.54,5.23.54,9.06,1.41,12.14.52,1.85.97,3.44.99,4.97-.07,8.88-.18,18.54-.32,28.73,30.31,12.33,57.96,11.24,75.85,8.16,17.99-3.1,29.96-8.8,31.74-9.68-.18-1.85-1.27-13.31-2.22-29.67-.02-1.57.37-2.85.83-4.33.75-2.44,1.61-5.21.95-10.37-.66-5.21-1.8-8.72-2.55-11.04-.47-1.45-.78-2.42-.79-3.15,0-.85.33-1.71.71-2.72.46-1.2.97-2.55.97-4.1,0-1.2-.37-2.29-.77-3.44-.38-1.1-.78-2.24-.9-3.59v-1.66c.19-1.98.52-2.97.87-4.01.32-.93.64-1.9.87-3.66.25-1.93-.21-4.52-.71-7.26-.43-2.41-.88-4.91-.86-7.13.16-6.52.42-12.88.79-18.9,6.02-99.63-.02-130.22-30.78-155.86l.49-.59c16.77,13.98,25.38,29.04,29.73,51.99,4.17,22,4.54,51.3,1.33,104.51-.36,6.01-.63,12.36-.79,18.87-.02,2.14.42,4.6.85,6.98.5,2.8.98,5.45.71,7.49-.24,1.84-.58,2.84-.91,3.81-.34,1-.66,1.95-.84,3.8v1.59c.11,1.22.49,2.32.86,3.37.42,1.21.82,2.36.82,3.69,0,1.68-.55,3.11-1.02,4.37-.36.93-.66,1.74-.66,2.44,0,.62.32,1.58.75,2.92.76,2.35,1.91,5.9,2.58,11.18.67,5.32-.24,8.3-.98,10.69-.44,1.42-.81,2.64-.8,4.07,1.04,17.77,2.23,29.76,2.24,29.88.02.16-.07.3-.2.38-.12.06-12.62,6.49-32.16,9.87-6.72,1.16-14.82,2.04-23.91,2.04h.02Z"/>
          <path class="cls-2" d="M84.36,133.29l-.73-.22c.03-.09.05-.19.07-.29,1.41-5.62,6.11-25.52,7.37-46.36,1.34-22.09-1.5-37.81-8.45-46.72-4.37-5.6-10.42-8.44-18-8.44-36.17,0-38.41,84.78-38.55,94.44,0,.1-.04.2-.12.27l-.26-.27-.28.28-.11-.28h0c.14-9.76,2.42-95.2,39.31-95.2,7.82,0,14.08,2.94,18.6,8.74,7.06,9.06,9.96,24.95,8.61,47.23-1.27,20.9-5.98,40.87-7.39,46.49-.02.1-.05.22-.08.33h.01Z"/>
          <path class="cls-2" d="M60.09,143.72c-16.04,0-31.44-6.66-34.32-14.84-.89-2.52-.53-5.02,1.03-7.23,3.44-4.85,12.26-7.86,23.02-7.86,16.04,0,31.44,6.66,34.32,14.84h0c.89,2.52.53,5.02-1.03,7.23-3.44,4.85-12.26,7.86-23.02,7.86ZM49.83,114.55c-10.52,0-19.1,2.89-22.4,7.54-1.43,2.03-1.75,4.23-.94,6.54,2.78,7.9,17.85,14.33,33.6,14.33,10.52,0,19.1-2.89,22.4-7.54,1.43-2.03,1.75-4.23.94-6.54h0c-2.78-7.9-17.85-14.33-33.6-14.33h0Z"/>
          <path class="cls-2" d="M23.12,44.76c-.09,0-.18-.03-.25-.1-.13-.11-.17-.3-.09-.45l4.54-9.31c.03-.06.07-.1.12-.14,5.23-3.84,9.63-8.87,13.88-13.73C49.87,11.25,58.72,1.15,74.39,1.15c.11,0,.21.04.28.12l5.77,6.19c.1.11.13.27.07.41s-.2.23-.35.23c-18.83,0-28.92,10.38-39.61,21.36-5.24,5.39-10.66,10.96-17.22,15.24-.06.04-.14.06-.21.06ZM27.96,35.32l-3.88,7.95c5.97-4.12,11.02-9.31,15.91-14.34,10.64-10.93,20.69-21.27,39.29-21.58l-5.06-5.43c-15.22.07-23.53,9.57-32.33,19.62-4.26,4.87-8.67,9.9-13.93,13.79h0Z"/>
          <g>
            <path class="cls-2" d="M67.06,30.98l-.76-.06c.03-.38.05-.75.06-1.13l.76.03c-.01.38-.04.77-.07,1.16h.01Z"/>
            <path class="cls-2" d="M66.36,27.27c-.04-.83-.11-1.68-.21-2.52l.76-.09c.1.87.18,1.74.22,2.58l-.76.03h-.01ZM65.76,22.24c-.16-.82-.34-1.65-.56-2.47l.74-.19c.22.84.41,1.69.57,2.52l-.75.14ZM64.49,17.33c-.26-.8-.55-1.61-.86-2.39l.71-.28c.31.8.61,1.61.87,2.43l-.73.24h.01Z"/>
            <path class="cls-2" d="M62.62,12.61c-.3-.64-.5-1-.5-1l.67-.37s.21.38.52,1.04l-.69.33Z"/>
          </g>
          <g>
            <rect class="cls-2" x="57.29" y="289.84" width=".76" height="1.14" transform="translate(-17.32 3.98) rotate(-3.44)"/>
            <path class="cls-2" d="M57.12,287.63l-.13-2.26.76-.04.13,2.26-.76.04ZM56.86,283.12l-.13-2.26.76-.04.13,2.26-.76.04ZM56.61,278.6c-.04-.73-.08-1.49-.12-2.26l.76-.04c.04.77.08,1.52.12,2.26l-.76.04ZM56.36,274.09l-.12-2.26.76-.04.12,2.26-.76.04ZM56.13,269.58l-.11-2.26.76-.04.11,2.26-.76.04ZM55.9,265.07c-.04-.75-.07-1.51-.11-2.26l.76-.04c.03.75.07,1.5.11,2.26l-.76.04ZM55.69,260.55l-.1-2.26.76-.03.1,2.26-.76.03ZM55.5,256.03c-.03-.77-.06-1.52-.09-2.26l.76-.03c.03.74.06,1.49.09,2.26l-.76.03ZM55.33,251.52h.38-.38v-.29c-.01-.11-.02-.23-.02-.34,0-.51.04-1.05.11-1.67l.76.09c-.07.59-.1,1.11-.1,1.58v.6l-.75.03h0ZM56.53,247.09l-.75-.14.14-.77c.09-.47.18-.95.26-1.45l.75.13c-.09.5-.18.99-.27,1.46l-.14.77h0ZM57.28,242.62l-.76-.1c.1-.77.17-1.49.22-2.22l.76.05c-.05.74-.12,1.49-.23,2.27h.01ZM56.83,238.07c0-.74-.03-1.49-.08-2.23l.76-.05c.05.76.08,1.53.08,2.28h-.76ZM56.52,233.62c-.1-.76-.2-1.51-.32-2.22l.75-.12c.12.72.22,1.48.32,2.25l-.76.1h.01ZM55.81,229.19c-.14-.73-.3-1.47-.46-2.19l.74-.17c.17.73.33,1.48.47,2.22l-.75.14ZM54.81,224.81c-.14-.53-.27-1.01-.39-1.44l-.2-.73.74-.2.2.73c.12.44.25.92.39,1.45l-.74.19ZM53.76,220.34v-.15c0-.63.13-1.3.35-2.18l.74.18c-.2.82-.33,1.45-.33,2v.08l-.76.07h0ZM55.36,215.98l-.75-.14c.15-.79.23-1.5.23-2.17h.76c0,.73-.09,1.48-.25,2.32h0ZM54.6,211.51c-.12-.52-.26-1.02-.42-1.55-.06-.2-.12-.4-.17-.6l.73-.21c.06.2.12.4.17.6.16.54.31,1.06.43,1.6l-.74.17h0ZM53.5,207.11c-.03-.21-.05-.42-.07-.63l-.04-1.65.76-.02v.05l.03,1.58c.02.18.04.38.07.57l-.76.11h.01ZM54.36,202.61l-.75-.11c.1-.65.22-1.2.34-1.72l.11-.51.75.16-.11.51c-.12.54-.23,1.04-.33,1.67h-.01ZM55.17,198.17l-.76-.08c.04-.32.07-.68.1-1.07.02-.26.03-.53.03-.82v-.32l.76-.02v.34c0,.3-.01.6-.03.87-.03.4-.06.76-.1,1.1h0ZM54.35,193.68c-.1-.79-.24-1.6-.35-2.21l.75-.13c.11.62.25,1.44.35,2.25l-.76.1h.01ZM53.61,189.24c-.15-.89-.26-1.59-.35-2.24l.76-.1c.09.65.2,1.33.35,2.22l-.75.13h-.01ZM53.02,184.72c-.02-.31-.03-.62-.04-.94l-.02-1.34h.76l.02,1.32c0,.3.02.6.04.9l-.76.05h0ZM52.93,180.19l-.04-2.26h.76l.04,2.24h-.76v.02ZM52.85,175.68l-.04-2.26h.76l.04,2.24h-.76v.02ZM52.78,171.16l-.04-2.26h.76l.03,2.24h-.76v.02ZM52.71,166.65l-.03-2.26h.76l.03,2.25h-.76ZM52.65,162.14l-.03-2.26h.76l.03,2.25h-.76ZM52.6,157.62c0-.76-.01-1.51-.02-2.26h.76c0,.74.01,1.49.02,2.25h-.76ZM52.57,153.11v-2.26h.76v2.25h-.76ZM53.33,148.59h-.76v-2.26h.76v2.26Z"/>
            <polygon class="cls-2" points="53.34 144.06 52.58 144.05 52.59 142.91 53.35 142.92 53.34 144.06"/>
          </g>
          <g>
            <path class="cls-2" d="M26.56,111.28l-.4-.65c.33-.2.66-.4,1-.59l.37.67c-.33.19-.65.38-.97.57Z"/>
            <path class="cls-2" d="M84.48,116.26c-.58-.47-1.2-.93-1.83-1.38l.44-.62c.65.46,1.28.93,1.88,1.41l-.48.59h-.01ZM80.72,113.62c-.64-.39-1.31-.77-2-1.14l.36-.67c.7.37,1.38.76,2.03,1.16l-.4.65h.01ZM76.67,111.45c-.68-.32-1.39-.64-2.11-.93l.29-.7c.73.3,1.45.62,2.14.95l-.33.69h0ZM72.42,109.68c-.71-.26-1.45-.51-2.18-.75l.23-.73c.74.24,1.49.49,2.21.76l-.26.72ZM29.57,109.66l-.32-.69c.69-.32,1.42-.63,2.16-.92l.27.71c-.72.28-1.44.58-2.11.89h0ZM68.02,108.26c-.74-.21-1.49-.4-2.23-.58l.18-.74c.76.18,1.52.38,2.26.59l-.21.73ZM33.86,108.01l-.23-.73c.73-.23,1.49-.45,2.25-.64l.19.74c-.75.19-1.5.41-2.21.63ZM63.54,107.18c-.75-.15-1.51-.3-2.27-.42l.13-.75c.77.13,1.54.27,2.3.43l-.15.75h-.01ZM38.31,106.87l-.15-.75c.75-.15,1.53-.29,2.3-.41l.12.75c-.76.12-1.53.26-2.27.41ZM58.98,106.41c-.76-.1-1.53-.19-2.29-.27l.08-.76c.77.08,1.55.17,2.32.28l-.1.76h0ZM42.87,106.16l-.08-.76c.76-.09,1.54-.16,2.33-.21l.06.76c-.78.06-1.55.13-2.3.21h-.01ZM54.39,105.94c-.77-.05-1.54-.09-2.31-.12l.03-.76c.77.03,1.56.07,2.33.12l-.05.76ZM47.47,105.82l-.03-.76c.76-.03,1.55-.04,2.33-.04v.76c-.78,0-1.55.01-2.31.04h.01Z"/>
            <path class="cls-2" d="M87,118.56c-.26-.27-.53-.53-.8-.79l.53-.55c.28.27.56.54.82.82l-.55.53h0Z"/>
          </g>
          <g>
            <path class="cls-2" d="M6.54,273.1c-.36-.14-.71-.28-1.07-.43l.29-.71c.35.14.71.29,1.06.43l-.28.71Z"/>
            <path class="cls-2" d="M58.38,282.99v-.76c.77,0,1.53-.01,2.29-.03l.02.76c-.76.02-1.53.03-2.31.03ZM56.07,282.98c-.76-.01-1.53-.03-2.31-.05l.02-.76c.77.02,1.54.04,2.3.05v.76h0ZM62.99,282.89l-.03-.76c.77-.03,1.54-.06,2.29-.1l.04.76c-.76.04-1.53.08-2.31.1h0ZM51.45,282.84c-.76-.04-1.53-.08-2.31-.13l.05-.76c.77.05,1.53.09,2.29.12l-.04.76h.01ZM67.6,282.65l-.05-.76c.77-.05,1.53-.11,2.29-.18l.07.76c-.76.07-1.53.13-2.3.18h-.01ZM46.85,282.55c-.76-.06-1.53-.13-2.3-.2l.07-.76c.77.07,1.53.14,2.29.2l-.06.76h0ZM72.2,282.25l-.08-.76c.77-.08,1.53-.16,2.28-.25l.09.76c-.76.09-1.52.17-2.29.25ZM42.25,282.11c-.76-.09-1.52-.18-2.29-.28l.1-.76c.76.1,1.52.19,2.28.28l-.09.76ZM76.79,281.7l-.1-.76c.77-.1,1.52-.21,2.27-.33l.12.75c-.75.11-1.51.22-2.29.33h0ZM37.67,281.51c-.76-.11-1.52-.23-2.28-.36l.12-.75c.76.13,1.52.24,2.27.35l-.11.75h0ZM81.35,281.01l-.13-.75c.76-.13,1.52-.26,2.26-.4l.14.75c-.75.14-1.5.27-2.27.4h0ZM33.12,280.76c-.75-.14-1.51-.28-2.27-.43l.15-.75c.75.15,1.51.29,2.25.43l-.14.75h.01ZM85.89,280.17l-.15-.75c.76-.15,1.51-.31,2.25-.47l.16.74c-.74.16-1.49.32-2.26.48ZM28.59,279.85c-.75-.16-1.5-.33-2.25-.51l.17-.74c.75.18,1.5.34,2.24.51l-.16.74ZM90.41,279.18l-.18-.74c.76-.18,1.5-.36,2.23-.55l.19.74c-.73.19-1.48.37-2.24.55h0ZM24.09,278.79c-.74-.19-1.49-.38-2.23-.58l.2-.74c.74.2,1.48.39,2.22.58l-.19.74ZM94.88,278.04l-.2-.74c.76-.21,1.49-.41,2.21-.62l.21.73c-.72.21-1.46.42-2.22.63h0ZM19.64,277.59c-.74-.21-1.47-.43-2.21-.66l.22-.73c.74.23,1.47.44,2.2.65l-.21.73h0ZM99.32,276.75l-.23-.73c.76-.23,1.49-.47,2.19-.7l.24.72c-.71.23-1.44.47-2.2.7h0ZM15.22,276.23c-.73-.24-1.46-.48-2.19-.73l.25-.72c.73.25,1.45.49,2.18.73l-.24.73h0ZM103.71,275.31l-.25-.72c.76-.26,1.48-.53,2.16-.78l.27.72c-.69.25-1.41.52-2.17.78h0ZM10.86,274.74c-.72-.26-1.44-.53-2.16-.8l.27-.71c.72.27,1.44.54,2.15.8l-.26.72h0ZM108.04,273.7l-.28-.71c.78-.31,1.49-.6,2.12-.87l.3.7c-.64.27-1.35.56-2.14.87h0Z"/>
            <path class="cls-2" d="M112.29,271.9l-.32-.69c.42-.19.76-.35,1.03-.48l.33.69c-.27.13-.62.29-1.04.49h0Z"/>
          </g>
        </g>
        <path class="cls-2" d="M115.4,278.95c-.01-.12-1.2-12.08-2.23-29.82,0-1.24.32-2.33.75-3.69.77-2.49,1.73-5.6,1.02-11.16-.68-5.38-1.85-8.99-2.62-11.38-.37-1.15-.69-2.14-.69-2.57,0-.49.29-1.24.59-2.03.49-1.28,1.1-2.88,1.1-4.77,0-1.52-.45-2.81-.88-4.06-.35-1.02-.69-1.98-.79-3.07v-1.48c.16-1.68.45-2.51.77-3.48.33-.97.7-2.08.96-4.03.29-2.23-.2-4.96-.72-7.85-.42-2.32-.85-4.72-.83-6.76.16-6.53.42-12.86.78-18.81,3.22-53.3,2.85-82.68-1.34-104.79-2.25-11.87-5.75-21.76-10.69-30.25-4.77-8.2-10.93-15.3-19.36-22.34l-5.7-6.12c-.29-.31-.69-.49-1.12-.49-16.19,0-25.21,10.31-33.93,20.27-4.21,4.82-8.57,9.79-13.7,13.56-.2.15-.36.34-.47.56l-4.52,9.26C11.19,60.2,5.9,78.81,3.33,91.52.08,107.58-.39,121.6.25,129.36c.29,3.52.6,6.89.91,10.15.99,10.62,2.01,21.6,2.64,41.28.06,2.02-.29,4.84-.63,7.57-.44,3.53-.86,6.87-.52,9.1.3,1.95.7,3.04,1.05,4.01.35.96.65,1.79.85,3.46l.04,1.48c-.08,1.1-.39,2.07-.72,3.09-.4,1.26-.82,2.56-.79,4.08.04,1.89.69,3.47,1.21,4.75.32.78.62,1.53.63,2.01h0c0,.44-.29,1.44-.63,2.59-.72,2.41-1.81,6.04-2.37,11.44-.58,5.59.56,9.61,1.48,12.85.48,1.71.9,3.19.92,4.46-.07,8.99-.18,18.73-.32,28.96,0,.63.37,1.2.95,1.43,16.96,6.93,34.76,10.45,52.91,10.45s31.82-3.27,40.91-6.01c9.88-2.98,15.6-5.93,15.84-6.05.55-.29.88-.88.81-1.51h-.02ZM57.84,291c-15.59,0-33.47-2.62-52.33-10.34.15-10.5.25-20.13.32-28.98-.04-4.01-3.27-8.77-2.4-17.15.87-8.37,3.04-12.41,3.01-14.21h0c-.04-1.74-1.77-3.89-1.84-6.76-.06-2.42,1.33-4.36,1.51-7.1-.01-.54-.03-1.08-.04-1.63-.43-3.66-1.35-3.86-1.91-7.58-.57-3.72,1.31-11.81,1.16-16.49-.83-25.89-2.34-36.77-3.55-51.51-1.34-16.21,2.36-55.27,21.37-84.88h0l4.54-9.31C43.57,23.39,51.23,1.52,74.41,1.52l5.77,6.19c31.86,26.56,36.77,59.43,30.92,156.18-.38,6.24-.63,12.57-.78,18.88-.04,4.68,2.05,10.7,1.57,14.44-.48,3.73-1.4,3.95-1.74,7.62v1.63c.24,2.74,1.67,4.64,1.67,7.06,0,2.87-1.69,5.06-1.69,6.8h0c0,1.81,2.27,5.8,3.33,14.15,1.06,8.36-1.83,10.71-1.78,14.72,1.05,18,2.24,29.91,2.24,29.91,0,0-22.85,11.89-56.04,11.89h-.04Z"/>
      </g>
    </g>
  </g>
</svg>